<svg height="646pt" viewBox="-20 -137 646.68653 646" width="646pt" xmlns="http://www.w3.org/2000/svg"><path d="m488.457031 128.90625c-8.371093 0-16.714843.890625-24.902343 2.65625l-28.363282-100.996094 50.40625-17.933594c.941406-.335937 1.996094-.074218 2.675782.660157.679687.734375.855468 1.800781.449218 2.71875l-24.832031 55.859375c-2.242187 5.046875.03125 10.953125 5.078125 13.199218 5.042969 2.242188 10.953125-.03125 13.195312-5.078124l24.828126-55.867188c3.652343-8.214844 2.054687-17.820312-4.054688-24.421875-6.113281-6.59375-15.5625-8.917969-24.035156-5.90625l-59.207032 21.0625c-4.976562 1.886719-7.695312 7.25-6.273437 12.375l13.980469 50.035156h-168.011719l-3.4375-27.488281h33.390625c5.519531 0 9.996094-4.476562 9.996094-9.996094 0-5.523437-4.476563-10-9.996094-10h-76.222656c-5.527344 0-9.996094 4.476563-9.996094 10 0 5.519532 4.46875 9.996094 9.996094 9.996094h22.675781l9.277344 72.847656-46.324219 38.664063c-40.019531-37.921875-100.988281-43-146.730469-12.222657-45.734375 30.78125-63.996093 89.171876-43.9375 140.527344 20.054688 51.355469 73.058594 81.914063 127.550781 73.542969 54.492188-8.371094 95.878907-53.425781 99.605469-108.433594h25.550781c8.699219 17.207031 27.777344 26.539063 46.703126 22.839844 18.925781-3.695313 33.082031-19.519531 34.671874-38.738281 1.585938-19.21875-9.796874-37.148438-27.863281-43.894532l120.558594-91.597656 9.585937 34.128906c-56.289062 22.6875-86.125 84.433594-68.921874 142.628907 17.203124 58.203125 75.808593 93.804687 135.382812 82.246093 59.578125-11.558593 100.625-66.492187 94.816406-126.902343-5.808594-60.410157-56.566406-106.515625-117.257812-106.511719zm-273.699219 105.808594h-72.773437l54.683594-45.636719c9.835937 13.410156 16.0625 29.128906 18.089843 45.636719zm-97.042968 109.789062c-43.675782.035156-82.082032-28.894531-94.101563-70.882812-12.019531-41.984375 5.253907-86.859375 42.332031-109.941406 37.074219-23.085938 84.960938-18.792969 117.335938 10.523437l-75.285156 62.835937c-3.230469 2.695313-4.425782 7.121094-2.992188 11.078126 1.4375 3.953124 5.195313 6.589843 9.402344 6.589843h100.753906c-4.214844 50.707031-46.566406 89.730469-97.445312 89.796875zm138.433594-109.789062h-21.242188c-2.160156-21.207032-10.0625-41.429688-22.855469-58.480469l36.019531-30.058594 4.074219 32.019531h.019531l5.722657 44.941407c-1.109375 3.757812-1.695313 7.660156-1.738281 11.578125zm18.976562-34.894532c-.023438.019532-.046875.164063-.078125.183594l-13.089844-102.742187h148.488281zm213.332031 144.683594c-46.421875.007813-86.449219-32.628906-95.792969-78.105468-9.347656-45.472657 14.5625-91.246094 57.222657-109.554688l25.179687 89.648438c.902344 3.511718 3.636719 6.253906 7.140625 7.175781 3.503907.921875 7.234375-.125 9.746094-2.738281 2.507813-2.609376 3.414063-6.378907 2.351563-9.84375l-25.335938-90.234376c36.539062-7.421874 74.125 6.570313 96.90625 36.09375 22.78125 29.515626 26.800781 69.417969 10.355469 102.882813-16.4375 33.46875-50.480469 54.671875-87.765625 54.675781zm0 0"/></svg>